<mxfile host="Electron" modified="2024-05-29T13:08:05.787Z" agent="Mozilla/5.0 (Windows NT 10.0; Win64; x64) AppleWebKit/537.36 (KHTML, like Gecko) draw.io/24.4.8 Chrome/124.0.6367.207 Electron/30.0.6 Safari/537.36" etag="7qo_h9UBDYgfZQPSuK3W" version="24.4.8" type="device">
  <diagram name="Page-1" id="q3Dqgq8F2JwoU3cbjp3w">
    <mxGraphModel dx="1235" dy="751" grid="1" gridSize="10" guides="1" tooltips="1" connect="1" arrows="1" fold="1" page="1" pageScale="1" pageWidth="850" pageHeight="1100" background="#D5FCA1" math="0" shadow="0">
      <root>
        <mxCell id="0" />
        <mxCell id="1" parent="0" />
        <mxCell id="AAzjkqdxBoveFYHE1xdQ-1" value="" style="rounded=0;whiteSpace=wrap;html=1;" vertex="1" parent="1">
          <mxGeometry width="850" height="60" as="geometry" />
        </mxCell>
        <mxCell id="AAzjkqdxBoveFYHE1xdQ-5" value="" style="rounded=1;whiteSpace=wrap;html=1;arcSize=11;" vertex="1" parent="1">
          <mxGeometry x="40" y="150" width="260" height="40" as="geometry" />
        </mxCell>
      </root>
    </mxGraphModel>
  </diagram>
</mxfile>
